# AST/ASF file generated using VICON BodyLanguage
# -----------------------------------------------
:version 1.10
:name VICON
:units
  mass 1.0
  length 0.45
  angle deg
:documentation
   .ast/.asf automatically generated from VICON data using
   VICON BodyBuilder and BodyLanguage model FoxedUp or BRILLIANT.MOD
:root
   order TX TY TZ RX RY RZ
   axis XYZ
   position 0 0 0  
   orientation 0 0 0 
:bonedata
  begin
     id 1 
     name lhipjoint
     direction 0.690799 -0.707083 0.151096 
     length 2.54797 
     axis 0 0 0  XYZ
  end
  begin
     id 2 
     name lfemur
     direction 0.34202 -0.939693 0  
     length 7.21646  
     axis 0 0 20  XYZ
    dof rx ry rz
    limits (-160.0 20.0)
           (-70.0 70.0)
           (-60.0 70.0)
  end
  begin
     id 3 
     name ltibia
     direction 0.34202 -0.939693 0   
     length 8.16759   
     axis 0 0 20   XYZ
    dof rx
    limits (-10.0 170.0)
  end
  begin
     id 4 
     name lfoot
     direction 0.0487203 -0.133858 0.989802   
     length 1.93375   
     axis -90 7.62852e-016 20   XYZ
    dof rx rz
    limits (-45.0 90.0)
           (-70.0 20.0)
  end
  begin
     id 5 
     name ltoes
     direction 1.53453e-011 -4.21783e-011 1   
     length 0.979747   
     axis -90 7.62852e-016 20   XYZ
    dof rx
    limits (-90.0 20.0)
  end
  begin
     id 6 
     name rhipjoint
     direction -0.694693 -0.703425 0.150315   
     length 2.56122  
     axis 0 0 0  XYZ 
  end
  begin
     id 7 
     name rfemur
     direction -0.34202 -0.939693 0   
     length 7.36786   
     axis 0 0 -20   XYZ
    dof rx ry rz
    limits (-160.0 20.0)
           (-70.0 70.0)
           (-70.0 60.0)
  end
  begin
     id 8 
     name rtibia
     direction -0.34202 -0.939693 0   
     length 8.07288   
     axis 0 0 -20   XYZ
    dof rx
    limits (-10.0 170.0)
 end
 begin
     id 9 
     name rfoot
     direction -0.0428397 -0.117701 0.992125   
     length 1.88295  
     axis -90 -7.62852e-016 -20   XYZ
    dof rx rz
    limits (-45.0 90.0)
           (-20.0 70.0)
  end
  begin
     id 10 
     name rtoes
     direction -1.53456e-011 -4.2187e-011 1   
     length 0.955578   
     axis -90 -7.62852e-016 -20   XYZ
    dof rx
    limits (-90.0 20.0)
  end
  begin
     id 11 
     name lowerback
     direction 0.0288145 0.999398 -0.0193241   
     length 1.92149   
     axis 0 0 0   XYZ
    dof rx ry rz
    limits (-20.0 45.0)
           (-30.0 30.0)
           (-30.0 30.0)
  end
  begin
     id 12 
     name upperback
     direction 0.0233784 0.998099 0.0570278   
     length 1.90435   
     axis 0 0 0   XYZ
    dof rx ry rz
    limits (-20.0 45.0)
           (-30.0 30.0)
           (-30.0 30.0)
  end
  begin
     id 13 
     name thorax
     direction 0.0096694 0.997833 0.0650817   
     length 1.9111   
     axis 0 0 0   XYZ
    dof rx ry rz
    limits (-20.0 45.0)
           (-30.0 30.0)
           (-30.0 30.0)
  end
  begin
     id 14 
     name lowerneck
     direction 0.00516803 0.999916 0.0118722   
     length 1.74664   
     axis 0 0 0   XYZ
    dof rx ry rz
    limits (-20.0 45.0)
           (-30.0 30.0)
           (-30.0 30.0)
  end
  begin
     id 15 
     name upperneck
     direction -0.0510851 0.996117 -0.071696   
     length 1.68498   
     axis 0 0 0   XYZ
    dof rx ry rz
    limits (-20.0 45.0)
           (-30.0 30.0)
           (-30.0 30.0)
  end
  begin
     id 16
     name head
     direction -0.019188 0.999436 -0.0275702  
     length 1.83483  
     axis 0 0 0   XYZ
    dof rx ry rz
    limits (-20.0 45.0)
           (-30.0 30.0)
           (-30.0 30.0)
  end
  begin
     id 17 
     name lclavicle
     direction 0.967006 0.248456 -0.0562957  
     length 3.39395  
     axis 0 0 0   XYZ
    dof ry rz
    limits (-20.0 10.0)
           (0.0 20.0)
  end
  begin
     id 18 
     name lhumerus
     direction 1 -4.48962e-011 -5.62711e-019   
     length 5.24318   
     axis 180 -30 -90   XYZ
    dof rx ry rz
    limits (-60.0 90.0)
           (-90.0 90.0)
           (-90.0 90.0)
  end
  begin
     id 19
     name lradius
     direction 1 -4.48966e-011 7.90625e-027   
     length 2.98999   
     axis 180 -30 -90   XYZ
    dof rx
    limits (-10.0 170.0)
  end
  begin
     id 20
     name lwrist
     direction 1 -4.48959e-011 1.61068e-026   
     length 1.49499   
     axis -9.31229e-015 90 90   XYZ
    dof ry
    limits (-180.0 0.0)
 end
  begin
     id 21 
     name lhand
     direction 1 -4.49017e-011 3.22136e-026   
     length 0.726745   
     axis -2.0555e-014 90 90   XYZ
    dof rx rz
    limits (-90.0 90.0)
           (-45.0 45.0)
  end
  begin
     id 22 
     name lfingers
     direction 1 -4.4898e-011 6.44272e-026   
     length 0.58592   
     axis -4.11101e-014 90 90   XYZ
    dof rx
    limits (0.0 90.0)
  end
  begin
     id 23
     name lthumb
     direction 0.707107 -6.34922e-011 0.707107   
     length 0.841268   
     axis -90 45 2.85299e-015   XYZ
    dof rx rz
    limits (-45.0 45.0)
           (-45.0 45.0)
  end
  begin
     id 24 
     name rclavicle
     direction -0.972232 0.230238 0.0419005   
     length 3.40416  
     axis 0 0 0   XYZ 
    dof ry rz
    limits (-10.0 20.0)
           (-20.0 0.0)
  end
  begin
     id 25 
     name rhumerus
     direction -1 -4.48976e-011 2.48487e-027  
     length 5.37045   
     axis 180 30 90   XYZ
    dof rx ry rz
    limits (-90.0 60.0)
           (-90.0 90.0)
           (-90.0 90.0)
  end
  begin
     id 26 
     name rradius
     direction -1 -4.48942e-011 7.87951e-027   
     length 2.92792   
     axis 180 30 90   XYZ
    dof rx
    limits (-10.0 170.0)
  end
  begin
     id 27 
     name rwrist
     direction -1 -4.48969e-011 1.61068e-026   
     length 1.46396   
     axis -9.31229e-015 -90 -90   XYZ
    dof ry
    limits (-180.0 0.0)
  end
  begin
     id 28
     name rhand
     direction -1 -4.49043e-011 3.22136e-026   
     length 0.784497   
     axis -2.0555e-014 -90 -90   XYZ
    dof rx rz
    limits (-90.0 90.0)
           (-45.0 45.0)
  end
  begin
     id 29
     name rfingers
     direction -1 -4.48823e-011 6.44272e-026   
     length 0.632482   
     axis -4.11101e-014 -90 -90   XYZ
    dof rx
    limits (0.0 90.0)
  end
  begin
     id 30
     name rthumb
     direction -0.707107 -6.34923e-011 0.707107   
     length 0.908121   
     axis -90 -45 -2.85299e-015   XYZ
    dof rx rz
    limits (-45.0 45.0)
           (-45.0 45.0)
  end
:hierarchy
  begin
    root lhipjoint rhipjoint lowerback
    lhipjoint lfemur
    lfemur ltibia
    ltibia lfoot
    lfoot ltoes
    rhipjoint rfemur
    rfemur rtibia
    rtibia rfoot
    rfoot rtoes
    lowerback upperback
    upperback thorax
    thorax lowerneck lclavicle rclavicle
    lowerneck upperneck
    upperneck head
    lclavicle lhumerus
    lhumerus lradius
    lradius lwrist
    lwrist lhand lthumb
    lhand lfingers
    rclavicle rhumerus
    rhumerus rradius
    rradius rwrist
    rwrist rhand rthumb
    rhand rfingers
  end

#!OML:ASF E:\Style6\Style6.ASF
:FULLY-SPECIFIED
:DEGREES
124
root 0.227105 18.2483 0.191656 10.2527 -3.16865 -2.99368
lowerback -3.23413 -0.270557 2.23245
upperback -3.5984 -0.36572 2.92961
thorax -1.879 -0.196884 1.75304
lowerneck -6.03829 -0.387442 3.28487
upperneck 9.87087 -0.0674109 -7.57665
head 3.92224 -0.302875 -2.86064
rclavicle 6.90777e-015 1.11319e-014
rhumerus -34.1528 -6.8582 -78.6765
rradius 34.2299
rwrist 18.7114
rhand -6.78155 10.3143
rfingers 7.12502
rthumb 19.0809 -18.7698
lclavicle 6.90777e-015 1.11319e-014
lhumerus -28.7344 7.30713 86.9419
lradius 24.8403
lwrist -20.7022
lhand -6.7627 14.3718
lfingers 7.12502
lthumb 19.099 43.454
rfemur -11.7643 15.7726 20.1633
rtibia 9.74605
rfoot -2.92472 -18.6629
rtoes -17.4807
lfemur -16.1704 -17.1056 -13.5622
ltibia 20.5823
lfoot -6.99646 21.1063
ltoes -12.9732
125
root 0.22421 18.2483 0.195363 10.2225 -3.19796 -2.92828
lowerback -3.2014 -0.265611 2.12793
upperback -3.61142 -0.355626 2.91991
thorax -1.91014 -0.189716 1.80207
lowerneck -5.98837 -0.389744 3.29546
upperneck 9.84678 -0.0717441 -7.58057
head 3.90629 -0.303521 -2.86325
rclavicle -1.42876e-014 7.95139e-015
rhumerus -34.3884 -7.30173 -78.4602
rradius 33.6007
rwrist 19.1275
rhand -6.25624 9.96814
rfingers 7.12502
rthumb 19.586 -19.0653
lclavicle -1.42876e-014 7.95139e-015
lhumerus -28.9386 8.25855 86.5582
lradius 24.1855
lwrist -21.4952
lhand -6.68703 14.668
lfingers 7.12502
lthumb 19.1718 43.7431
rfemur -11.7027 15.7864 20.1102
rtibia 9.70519
rfoot -2.87135 -18.667
rtoes -17.7789
lfemur -16.1398 -17.1283 -13.6447
ltibia 20.6126
lfoot -6.93284 21.1635
ltoes -13.4445
126
root 0.224254 18.2472 0.199907 10.2615 -3.18629 -3.01895
lowerback -3.24363 -0.253063 2.24118
upperback -3.62975 -0.341609 2.94291
thorax -1.90642 -0.184997 1.76244
lowerneck -5.99905 -0.388011 3.2976
upperneck 9.86461 -0.0689326 -7.57919
head 3.91362 -0.30244 -2.8633
rclavicle 1.81018e-014 -3.26007e-014
rhumerus -34.618 -7.81325 -78.2124
rradius 33.0106
rwrist 19.5465
rhand -6.21439 9.85038
rfingers 7.12502
rthumb 19.6263 -19.1789
lclavicle 1.81018e-014 -3.26007e-014
lhumerus -29.1225 9.35793 86.0722
lradius 23.3591
lwrist -22.632
lhand -6.75451 14.3396
lfingers 7.12502
lthumb 19.1069 43.421
rfemur -11.6913 15.7885 20.2054
rtibia 9.66077
rfoot -2.86261 -18.6628
rtoes -17.9134
lfemur -16.1793 -17.1617 -13.5336
ltibia 20.6454
lfoot -6.95328 21.2092
ltoes -13.3936
127
root 0.22378 18.2463 0.202599 10.3227 -3.16312 -3.15406
lowerback -3.30754 -0.249812 2.38755
upperback -3.62895 -0.342197 2.98191
thorax -1.87082 -0.187973 1.72026
lowerneck -6.05964 -0.358647 3.32661
upperneck 9.88759 -0.0302214 -7.59463
head 3.93287 -0.28454 -2.87156
rclavicle 1.4151e-014 -2.38542e-014
rhumerus -34.7974 -8.54126 -77.8686
rradius 32.4308
rwrist 20.2836
rhand -5.89112 9.77146
rfingers 7.12502
rthumb 19.937 -19.2258
lclavicle 1.4151e-014 -2.38542e-014
lhumerus -29.2795 10.6083 85.4783
lradius 22.4502
lwrist -24.0272
lhand -6.9549 13.8458
lfingers 7.12502
lthumb 18.9142 42.9462
rfemur -11.7157 15.7881 20.3436
rtibia 9.60157
rfoot -2.81229 -18.6663
rtoes -18.0594
lfemur -16.2521 -17.1329 -13.3682
ltibia 20.6843
lfoot -6.97765 21.1722
ltoes -13.3325
128
root 0.223439 18.2456 0.205124 10.3176 -3.16404 -3.16262
lowerback -3.31384 -0.232506 2.39718
upperback -3.61376 -0.320136 2.98004
thorax -1.85196 -0.177036 1.71313
lowerneck -6.08834 -0.354236 3.33515
upperneck 9.86703 -0.0287403 -7.57434
head 3.93159 -0.282676 -2.86659
rclavicle 1.31943e-014 -3.57812e-014
rhumerus -35.0162 -9.31284 -77.4725
rradius 31.891
rwrist 21.0452
rhand -5.54569 9.81074
rfingers 7.12502
rthumb 20.269 -19.1517
lclavicle 1.31943e-014 -3.57812e-014
lhumerus -29.4865 11.7714 84.8959
lradius 21.686
lwrist -25.2611
lhand -6.83292 14.0485
lfingers 7.12502
lthumb 19.0315 43.1374
rfemur -11.6378 15.7865 20.3591
rtibia 9.47501
rfoot -2.66424 -18.6753
rtoes -18.337
lfemur -16.2693 -17.1625 -13.3607
ltibia 20.7545
lfoot -6.96656 21.2264
ltoes -13.6117
